<?xml version="1.0" encoding="utf-8"?>
<!-- Generator: Adobe Illustrator 27.5.0, SVG Export Plug-In . SVG Version: 6.00 Build 0)  -->
<svg version="1.1" xmlns="http://www.w3.org/2000/svg" xmlns:xlink="http://www.w3.org/1999/xlink" x="0px" y="0px"
	 viewBox="0 0 500 500" style="enable-background:new 0 0 500 500;" xml:space="preserve">
<g id="Background_Simple">
	<g>
		<path style="fill:#92E3A9;" d="M466.365,182.274c-3.952-52.192-39.086-96.138-82.704-122.437
			c-42.113-25.392-92.69-36.462-141.559-30.984C174.448,36.437,84.31,79.783,88.985,159.621c0.846,14.44,4.91,28.867,2.795,43.176
			c-3.816,25.807-26.103,44.14-40.954,65.588c-15.695,22.666-23.544,50.658-21.922,78.18c1.817,30.826,17.821,62.924,46.474,74.438
			c28.745,11.552,61.159,0.073,92.117,1.22c50.15,1.858,93.404,36.585,142.839,45.225c36.435,6.367,75.281-2.414,105.434-23.835
			c14.098-10.015,26.565-23.037,33.082-39.055c16.409-40.333-8.241-86.232-1.749-129.289c4.466-29.613,20.344-55.465,19.607-86.116
			C466.652,186.844,466.537,184.55,466.365,182.274z"/>
		<path style="opacity:0.7;fill:#FFFFFF;" d="M466.365,182.274c-3.952-52.192-39.086-96.138-82.704-122.437
			c-42.113-25.392-92.69-36.462-141.559-30.984C174.448,36.437,84.31,79.783,88.985,159.621c0.846,14.44,4.91,28.867,2.795,43.176
			c-3.816,25.807-26.103,44.14-40.954,65.588c-15.695,22.666-23.544,50.658-21.922,78.18c1.817,30.826,17.821,62.924,46.474,74.438
			c28.745,11.552,61.159,0.073,92.117,1.22c50.15,1.858,93.404,36.585,142.839,45.225c36.435,6.367,75.281-2.414,105.434-23.835
			c14.098-10.015,26.565-23.037,33.082-39.055c16.409-40.333-8.241-86.232-1.749-129.289c4.466-29.613,20.344-55.465,19.607-86.116
			C466.652,186.844,466.537,184.55,466.365,182.274z"/>
	</g>
</g>
<g id="Floor">
	<g>
		
			<line style="fill:#FFFFFF;stroke:#263238;stroke-linecap:round;stroke-linejoin:round;stroke-miterlimit:10;" x1="432" y1="460" x2="470" y2="460"/>
		
			<line style="fill:#FFFFFF;stroke:#263238;stroke-linecap:round;stroke-linejoin:round;stroke-miterlimit:10;" x1="53" y1="460" x2="425" y2="460"/>
		
			<line style="fill:#FFFFFF;stroke:#263238;stroke-linecap:round;stroke-linejoin:round;stroke-miterlimit:10;" x1="34" y1="460" x2="45" y2="460"/>
	</g>
</g>
<g id="Plant">
	<g>
		<path style="fill:none;stroke:#263238;stroke-width:2;stroke-linecap:round;stroke-miterlimit:10;" d="M94.113,282.942
			c0,0-13.245-7.358-14.226,9.32c-0.981,16.679-3.434,125.091-3.434,125.091"/>
		<path style="fill:none;stroke:#263238;stroke-width:2;stroke-linecap:round;stroke-miterlimit:10;" d="M73.008,293.732
			c0,0,10.803,24.039,5.898,122.149"/>
		<g>
			<path style="fill:#92E3A9;" d="M83.621,286.299c0,0-5.066,3.246-7.949-0.469c-2.883-3.715,1.95-10.521-2.31-13.431
				c-4.26-2.91-11.613,1.531-11.613,1.531s5.663,1.664,5.481,4.755c-0.182,3.091-2.91,4.26-3.274,2.909
				c-0.364-1.351-3.064-8.158-7.663-5.327c-4.599,2.831-5.301,7.221-5.301,7.221s10.703-1.141,11.352,2.886
				c0.649,4.027-4.39-0.702-8.807-0.963c-4.416-0.261-8.443,0.388-8.158,3.064c0.285,2.676-0.417,7.066-0.417,7.066
				s3.742-3.325,8.6-3.038c4.858,0.287,4.675,3.378,0.259,3.117c-4.416-0.261-8.21,3.947-8.21,3.947s4.025,6.885,9.143,10.289
				c5.117,3.404,6.962,2.183,7.56-0.44c0.598-2.624-0.778-9.352,2.314-9.17c3.091,0.182-5.12,11.663-1.171,12.34
				c3.948,0.676,7.118-0.466,8.158-3.064c1.04-2.598,1.04-2.598,1.04-2.598s-1.376-6.729-0.778-9.352
				c0.598-2.624,1.325,0.078,2.026,3.222c0.701,3.143,1.141,10.703,2.492,10.34c1.351-0.364,5.664-5.87,6.678-8.026
				c1.014-2.156-5.688-8.756-5.61-10.081c0.078-1.325,5.247,1.196,6.053,2.573c0.805,1.377,1.584,3.196,1.584,3.196
				s3.222-2.026,3.145-8.235C88.168,284.352,83.621,286.299,83.621,286.299z"/>
			<path style="opacity:0.3;fill:#263238;" d="M83.621,286.299c0,0-5.066,3.246-7.949-0.469c-2.883-3.715,1.95-10.521-2.31-13.431
				c-4.26-2.91-11.613,1.531-11.613,1.531s5.663,1.664,5.481,4.755c-0.182,3.091-2.91,4.26-3.274,2.909
				c-0.364-1.351-3.064-8.158-7.663-5.327c-4.599,2.831-5.301,7.221-5.301,7.221s10.703-1.141,11.352,2.886
				c0.649,4.027-4.39-0.702-8.807-0.963c-4.416-0.261-8.443,0.388-8.158,3.064c0.285,2.676-0.417,7.066-0.417,7.066
				s3.742-3.325,8.6-3.038c4.858,0.287,4.675,3.378,0.259,3.117c-4.416-0.261-8.21,3.947-8.21,3.947s4.025,6.885,9.143,10.289
				c5.117,3.404,6.962,2.183,7.56-0.44c0.598-2.624-0.778-9.352,2.314-9.17c3.091,0.182-5.12,11.663-1.171,12.34
				c3.948,0.676,7.118-0.466,8.158-3.064c1.04-2.598,1.04-2.598,1.04-2.598s-1.376-6.729-0.778-9.352
				c0.598-2.624,1.325,0.078,2.026,3.222c0.701,3.143,1.141,10.703,2.492,10.34c1.351-0.364,5.664-5.87,6.678-8.026
				c1.014-2.156-5.688-8.756-5.61-10.081c0.078-1.325,5.247,1.196,6.053,2.573c0.805,1.377,1.584,3.196,1.584,3.196
				s3.222-2.026,3.145-8.235C88.168,284.352,83.621,286.299,83.621,286.299z"/>
			<path style="fill:none;stroke:#263238;stroke-linecap:round;stroke-miterlimit:10;" d="M57.937,300.858
				c3.304-4.085,8.173-9.611,12.254-12.249"/>
			<path style="fill:none;stroke:#263238;stroke-linecap:round;stroke-miterlimit:10;" d="M54.107,305.83
				c0,0,0.848-1.18,2.223-2.947"/>
			<path style="fill:none;stroke:#263238;stroke-linecap:round;stroke-miterlimit:10;" d="M72.346,289.623
				c0,0,4.909,6.937,5.817,14.081"/>
			<path style="fill:none;stroke:#263238;stroke-linecap:round;stroke-miterlimit:10;" d="M66.786,293.726
				c0,0,1.377-0.805,0.856,8.027"/>
			<path style="fill:none;stroke:#263238;stroke-linecap:round;stroke-miterlimit:10;" d="M70.372,285.518
				c0,0,2.806-2.493,1.326-7.456"/>
			
				<line style="fill:none;stroke:#263238;stroke-linecap:round;stroke-miterlimit:10;" x1="66.579" y1="289.725" x2="64.579" y2="286.062"/>
			<path style="fill:none;stroke:#263238;stroke-linecap:round;stroke-miterlimit:10;" d="M62.37,293.466
				c0,0-6.364-4.807-10.339-5.042"/>
		</g>
		<g>
			<path style="fill:#92E3A9;" d="M101.679,273.21c0,0-0.203,7.285-5.888,7.639c-5.685,0.354-9.204-9.124-15.022-6.842
				c-5.818,2.281-6.383,12.67-6.383,12.67s5.526-4.536,8.496-2.246c2.971,2.29,2.281,5.817,0.681,5.26
				c-1.6-0.557-10.256-2.493-10.556,4.041c-0.3,6.534,3.617,10.229,3.617,10.229s6.153-11.494,10.627-9.399
				c4.474,2.095-3.696,3.917-6.967,8.161c-3.271,4.244-5.366,8.718-2.493,10.256c2.874,1.538,6.79,5.234,6.79,5.234
				s-0.778-6.012,2.82-10.68c3.598-4.669,6.569-2.379,3.298,1.865c-3.271,4.244-1.644,10.91-1.644,10.91s9.637,0.663,16.533-2.141
				c6.896-2.803,6.931-5.482,4.712-7.869c-2.219-2.387-9.894-5.596-7.604-8.567c2.29-2.971,8.188,13.076,11.556,9.583
				c3.368-3.492,4.385-7.445,2.493-10.256c-1.892-2.811-1.892-2.811-1.892-2.811s-7.675-3.209-9.894-5.596
				c-2.219-2.387,0.981-1.273,4.606,0.168c3.625,1.441,11.494,6.153,12.051,4.553c0.557-1.6-2.016-9.672-3.484-12.157
				c-1.468-2.484-12.643-0.273-13.916-1.255c-1.273-0.981,4.774-4.439,6.701-4.306c1.928,0.133,4.279,0.592,4.279,0.592
				s0.168-4.606-6.101-8.761C102.828,267.331,101.679,273.21,101.679,273.21z"/>
			<path style="opacity:0.2;fill:#263238;" d="M101.679,273.21c0,0-0.203,7.285-5.888,7.639c-5.685,0.354-9.204-9.124-15.022-6.842
				c-5.818,2.281-6.383,12.67-6.383,12.67s5.526-4.536,8.496-2.246c2.971,2.29,2.281,5.817,0.681,5.26
				c-1.6-0.557-10.256-2.493-10.556,4.041c-0.3,6.534,3.617,10.229,3.617,10.229s6.153-11.494,10.627-9.399
				c4.474,2.095-3.696,3.917-6.967,8.161c-3.271,4.244-5.366,8.718-2.493,10.256c2.874,1.538,6.79,5.234,6.79,5.234
				s-0.778-6.012,2.82-10.68c3.598-4.669,6.569-2.379,3.298,1.865c-3.271,4.244-1.644,10.91-1.644,10.91s9.637,0.663,16.533-2.141
				c6.896-2.803,6.931-5.482,4.712-7.869c-2.219-2.387-9.894-5.596-7.604-8.567c2.29-2.971,8.188,13.076,11.556,9.583
				c3.368-3.492,4.385-7.445,2.493-10.256c-1.892-2.811-1.892-2.811-1.892-2.811s-7.675-3.209-9.894-5.596
				c-2.219-2.387,0.981-1.273,4.606,0.168c3.625,1.441,11.494,6.153,12.051,4.553c0.557-1.6-2.016-9.672-3.484-12.157
				c-1.468-2.484-12.643-0.273-13.916-1.255c-1.273-0.981,4.774-4.439,6.701-4.306c1.928,0.133,4.279,0.592,4.279,0.592
				s0.168-4.606-6.101-8.761C102.828,267.331,101.679,273.21,101.679,273.21z"/>
			<path style="fill:none;stroke:#263238;stroke-linecap:round;stroke-miterlimit:10;" d="M98.748,308.849
				c-1.837-6.092-4.052-14.734-3.911-20.617"/>
			<path style="fill:none;stroke:#263238;stroke-linecap:round;stroke-miterlimit:10;" d="M101.116,316.073
				c0,0-0.603-1.653-1.435-4.235"/>
			<path style="fill:none;stroke:#263238;stroke-linecap:round;stroke-miterlimit:10;" d="M97.321,286.764
				c0,0,10.291-0.186,18.063,3.774"/>
			<path style="fill:none;stroke:#263238;stroke-linecap:round;stroke-miterlimit:10;" d="M97.64,295.128
				c0,0,0.132-1.927,8.62,4.615"/>
			<path style="fill:none;stroke:#263238;stroke-linecap:round;stroke-miterlimit:10;" d="M91.866,285.942
				c0,0-0.584-4.509-6.561-6.41"/>
			
				<line style="fill:none;stroke:#263238;stroke-linecap:round;stroke-miterlimit:10;" x1="93.493" y1="292.608" x2="88.462" y2="292.114"/>
			<path style="fill:none;stroke:#263238;stroke-linecap:round;stroke-miterlimit:10;" d="M94.369,299.372
				c0,0-9.151,3.095-12.095,6.915"/>
		</g>
		<path style="fill:none;stroke:#263238;stroke-width:2;stroke-linecap:round;stroke-miterlimit:10;" d="M40.642,321.696
			c0,0,28.943,19.132,28.452,93.205"/>
		<g>
			<path style="fill:#92E3A9;" d="M76.328,316.642c0,0-0.922,8.388-7.515,8.26c-6.594-0.128-9.76-11.397-16.688-9.314
				c-6.928,2.083-8.561,14.018-8.561,14.018s6.804-4.713,10.016-1.79c3.212,2.923,2.083,6.928,0.289,6.135
				c-1.794-0.794-11.599-3.844-12.563,3.667c-0.963,7.511,3.208,12.145,3.208,12.145s8.185-12.682,13.15-9.843
				c4.965,2.84-4.634,4.171-8.809,8.76c-4.175,4.589-7.015,9.553-3.845,11.599c3.171,2.046,7.342,6.68,7.342,6.68
				s-0.331-7.011,4.262-12.058c4.593-5.047,7.805-2.125,3.629,2.464c-4.175,4.589-2.927,12.434-2.927,12.434
				s11.058,1.674,19.28-0.909c8.222-2.584,8.516-5.672,6.18-8.636c-2.336-2.964-10.888-7.391-7.966-10.603
				c2.923-3.212,8.214,15.862,12.43,12.149c4.216-3.712,5.763-8.177,3.845-11.6c-1.918-3.423-1.918-3.423-1.918-3.423
				s-8.553-4.427-10.888-7.391c-2.336-2.964,1.253-1.376,5.3,0.628c4.047,2.005,12.683,8.185,13.476,6.391
				c0.794-1.794-1.414-11.351-2.873-14.357c-1.459-3.005-14.563-1.509-15.94-2.761c-1.377-1.253,5.928-4.671,8.139-4.336
				c2.212,0.335,4.882,1.087,4.882,1.087s0.628-5.299-6.213-10.686C78.208,309.966,76.328,316.642,76.328,316.642z"/>
			<path style="opacity:0.3;fill:#263238;" d="M76.328,316.642c0,0-0.922,8.388-7.515,8.26c-6.594-0.128-9.76-11.397-16.688-9.314
				c-6.928,2.083-8.561,14.018-8.561,14.018s6.804-4.713,10.016-1.79c3.212,2.923,2.083,6.928,0.289,6.135
				c-1.794-0.794-11.599-3.844-12.563,3.667c-0.963,7.511,3.208,12.145,3.208,12.145s8.185-12.682,13.15-9.843
				c4.965,2.84-4.634,4.171-8.809,8.76c-4.175,4.589-7.015,9.553-3.845,11.599c3.171,2.046,7.342,6.68,7.342,6.68
				s-0.331-7.011,4.262-12.058c4.593-5.047,7.805-2.125,3.629,2.464c-4.175,4.589-2.927,12.434-2.927,12.434
				s11.058,1.674,19.28-0.909c8.222-2.584,8.516-5.672,6.18-8.636c-2.336-2.964-10.888-7.391-7.966-10.603
				c2.923-3.212,8.214,15.862,12.43,12.149c4.216-3.712,5.763-8.177,3.845-11.6c-1.918-3.423-1.918-3.423-1.918-3.423
				s-8.553-4.427-10.888-7.391c-2.336-2.964,1.253-1.376,5.3,0.628c4.047,2.005,12.683,8.185,13.476,6.391
				c0.794-1.794-1.414-11.351-2.873-14.357c-1.459-3.005-14.563-1.509-15.94-2.761c-1.377-1.253,5.928-4.671,8.139-4.336
				c2.212,0.335,4.882,1.087,4.882,1.087s0.628-5.299-6.213-10.686C78.208,309.966,76.328,316.642,76.328,316.642z"/>
			<path style="fill:none;stroke:#263238;stroke-linecap:round;stroke-miterlimit:10;" d="M69.581,357.49
				c-1.545-7.203-3.285-17.384-2.567-24.16"/>
			<path style="fill:none;stroke:#263238;stroke-linecap:round;stroke-miterlimit:10;" d="M71.632,366.049
				c0,0-0.539-1.965-1.256-5.022"/>
			<path style="fill:none;stroke:#263238;stroke-linecap:round;stroke-miterlimit:10;" d="M70.02,331.871
				c0,0,11.893,0.756,20.487,6.06"/>
			<path style="fill:none;stroke:#263238;stroke-linecap:round;stroke-miterlimit:10;" d="M69.598,341.552
				c0,0,0.335-2.212,9.512,6.139"/>
			<path style="fill:none;stroke:#263238;stroke-linecap:round;stroke-miterlimit:10;" d="M63.802,330.407
				c0,0-0.248-5.258-6.965-8.015"/>
			
				<line style="fill:none;stroke:#263238;stroke-linecap:round;stroke-miterlimit:10;" x1="65.051" y1="338.253" x2="59.292" y2="337.207"/>
			<path style="fill:none;stroke:#263238;stroke-linecap:round;stroke-miterlimit:10;" d="M65.423,346.141
				c0,0-10.851,2.708-14.609,6.837"/>
		</g>
		<path style="fill:none;stroke:#263238;stroke-width:2;stroke-linecap:round;stroke-miterlimit:10;" d="M51.925,380.072
			c0,0,18.641,14.226,20.603,35.32l-3.925-70.64"/>
		<path style="fill:none;stroke:#263238;stroke-width:2;stroke-linecap:round;stroke-miterlimit:10;" d="M97.056,369.77
			c-24.528-4.415-24.528,45.621-24.528,45.621"/>
		<path style="fill:none;stroke:#263238;stroke-width:2;stroke-linecap:round;stroke-miterlimit:10;" d="M75.471,414.901
			c0,0-14.226-103.507,26.981-103.507"/>
		<g>
			<path style="fill:#92E3A9;" d="M87.71,366.794c-3.35-3.769-10.47-3.769-14.658,5.863c-4.188,9.632-0.419,7.957-0.419,7.957
				s7.957-2.513,12.983-4.188c5.026-1.675,11.726-5.863,12.145-3.35c0.419,2.513-3.35,5.026-7.957,5.863
				c-4.607,0.838-16.752,4.188-15.496,6.701c1.256,2.513,4.188,10.051,4.188,10.051s5.863-5.026,11.307-8.376
				c5.444-3.35,8.795-2.094,5.863,1.675c-2.932,3.769-11.308,7.957-9.632,12.983c1.675,5.026,11.726,11.308,11.726,11.308
				s1.257-10.47,4.188-13.82c2.932-3.35,2.932,0.419,2.094,6.282c-0.838,5.863-0.838,7.538-0.838,7.538l11.726,4.188
				c0,0,4.188-6.282,6.282-8.376c2.094-2.094,2.094-2.094,2.094-2.094s-9.214-7.957-9.632-12.983c-0.419-5.026,6.282,0,8.376,0.837
				c2.094,0.838,5.445,6.701,5.445,6.701s2.094-9.632,2.513-12.983c0.419-3.351,0.419-3.351,0.419-3.351s-8.795-3.35-12.145-3.35
				c-3.35,0-5.025,2.513-5.025-0.838c0-3.35,3.35-5.444,7.119-5.026c3.769,0.419,10.051,2.513,10.051,2.513s2.513-2.094,1.675-8.376
				c-0.838-6.282-2.932-6.282-7.957-4.607c-5.025,1.675-8.376,5.444-12.145,5.444c-3.769,0-1.675-4.607,0.838-5.863
				c2.513-1.256,8.795-3.769,10.051-4.188c1.256-0.419-6.701-6.282-10.889-7.12c-4.188-0.838-9.611,2.113-9.214,6.282
				C103.624,368.888,91.06,370.564,87.71,366.794z"/>
			<path style="fill:none;stroke:#263238;stroke-linecap:round;stroke-miterlimit:10;" d="M114.669,409.915
				c0.125,1.261,0.214,2.524,0.262,3.785"/>
			<path style="fill:none;stroke:#263238;stroke-linecap:round;stroke-miterlimit:10;" d="M106.256,379.851
				c2.941,6.797,6.342,16.17,7.883,25.951"/>
			<path style="fill:none;stroke:#263238;stroke-linecap:round;stroke-miterlimit:10;" d="M104.747,376.489
				c-2.075-4.462-3.636-7.181-3.636-7.181s3.769-1.675,5.444-5.026c1.675-3.35,4.188-5.026,4.188-5.026"/>
			<path style="fill:none;stroke:#263238;stroke-linecap:round;stroke-miterlimit:10;" d="M86.453,383.547
				c0,0,15.077-6.282,15.077-5.026"/>
			<path style="fill:none;stroke:#263238;stroke-linecap:round;stroke-miterlimit:10;" d="M109.906,375.589
				c0,0,6.701-3.35,12.564-3.35"/>
			<path style="fill:none;stroke:#263238;stroke-linecap:round;stroke-miterlimit:10;" d="M107.393,385.64
				c0,0-3.769,2.932-7.957,7.957c-4.188,5.026-5.863,9.632-5.863,9.632"/>
			<path style="fill:none;stroke:#263238;stroke-linecap:round;stroke-miterlimit:10;" d="M112,387.316
				c0,0,8.795-2.513,13.401,1.675"/>
		</g>
		<g>
			<path style="fill:#92E3A9;" d="M127.931,330.727c-4.559-2.697-9.602-2.756-12.073-5.602c-2.471-2.846,2.381-4.285,4.977-3.211
				c2.596,1.074,8.612,4.17,9.752,4.845c1.14,0.674,0.351-9.178-1.762-12.89c-2.113-3.712-7.896-5.872-10.784-2.839
				c-6.092,6.398-15.594-1.991-14.944-6.992c0.65-5.001-4.018-10.377-14.037-7.225c-10.019,3.152-6.283,4.9-6.283,4.9
				s7.114,4.362,11.674,7.058c4.56,2.697,12.115,5.011,10.492,6.975c-1.623,1.964-5.991,0.765-9.644-2.165
				c-3.653-2.93-14.145-9.904-15.218-7.308c-1.074,2.596-4.844,9.752-4.844,9.752s7.639,1.133,13.738,3.048
				c6.099,1.915,7.347,5.268,2.579,5.526c-4.768,0.257-13.422-3.322-16.118,1.237c-2.697,4.56-0.851,16.268-0.851,16.268
				s8.73-5.915,13.182-5.898c4.452,0.017,1.605,2.488-3.371,5.699c-4.977,3.211-6.242,4.309-6.242,4.309l4.525,11.6
				c0,0,7.489-0.956,10.443-0.747c2.954,0.208,2.954,0.208,2.954,0.208s-0.031-12.174,3.489-15.785
				c3.52-3.611,4.118,4.744,4.858,6.874c0.74,2.13-1.491,8.504-1.491,8.504s8.646-4.733,11.451-6.614
				c2.805-1.88,2.805-1.88,2.805-1.88s-3.236-8.838-5.432-11.368c-2.196-2.53-5.192-2.148-2.662-4.344
				c2.53-2.196,6.308-1.039,8.462,2.082c2.155,3.121,4.692,9.237,4.692,9.237s3.229,0.525,7.423-4.226
				C133.863,335.005,132.49,333.424,127.931,330.727z M88.297,344.132c-3.35-1.675,4.607-5.025,4.607-5.025
				C95.835,338.688,91.647,345.808,88.297,344.132z M93.939,328.497c-1.428-0.714,2.856-2.142,2.856-2.142
				C102.984,327.545,95.367,329.211,93.939,328.497z"/>
			<path style="fill:none;stroke:#263238;stroke-linecap:round;stroke-miterlimit:10;" d="M88.208,352.664
				c-0.871,0.921-1.766,1.816-2.686,2.679"/>
			<path style="fill:none;stroke:#263238;stroke-linecap:round;stroke-miterlimit:10;" d="M105.395,326.601
				c-3.205,6.677-8.053,15.39-14.429,22.966"/>
			<path style="fill:none;stroke:#263238;stroke-linecap:round;stroke-miterlimit:10;" d="M106.945,323.258
				c2.009-4.492,3.039-7.454,3.039-7.454s3.736,1.748,7.364,0.817c3.628-0.931,6.541-0.132,6.541-0.132"/>
			<path style="fill:none;stroke:#263238;stroke-linecap:round;stroke-miterlimit:10;" d="M89.623,314.071
				c0,0,14.628,7.267,13.679,8.09"/>
			<path style="fill:none;stroke:#263238;stroke-linecap:round;stroke-miterlimit:10;" d="M111.006,326.564
				c0,0,6.923,2.864,10.766,7.291"/>
			<path style="fill:none;stroke:#263238;stroke-linecap:round;stroke-miterlimit:10;" d="M101.769,331.256
				c0,0-4.685-0.924-11.225-0.792c-6.541,0.132-11.118,1.887-11.118,1.887"/>
			<path style="fill:none;stroke:#263238;stroke-linecap:round;stroke-miterlimit:10;" d="M103.524,335.833
				c0,0,7.663,4.994,7.521,11.218"/>
		</g>
		<g>
			<path style="fill:#92E3A9;" d="M62.854,388.758c-3.669-2.17-7.728-2.218-9.716-4.508c-1.988-2.291,1.916-3.448,4.005-2.584
				c2.089,0.864,6.93,3.356,7.848,3.899c0.917,0.542,0.282-7.386-1.418-10.373c-1.7-2.987-6.354-4.726-8.678-2.285
				c-4.903,5.149-12.549-1.602-12.026-5.627c0.523-4.024-3.233-8.351-11.296-5.814c-8.063,2.537-5.057,3.944-5.057,3.944
				s5.725,3.51,9.394,5.68c3.669,2.17,9.75,4.033,8.443,5.613c-1.306,1.58-4.821,0.615-7.761-1.742
				c-2.939-2.358-11.383-7.971-12.247-5.881c-0.864,2.089-3.899,7.848-3.899,7.848s6.147,0.912,11.056,2.452
				c4.908,1.541,5.912,4.24,2.075,4.447c-3.837,0.207-10.801-2.674-12.971,0.996c-2.17,3.669-0.685,13.092-0.685,13.092
				s7.025-4.76,10.608-4.746c3.583,0.014,1.292,2.002-2.713,4.587c-4.005,2.584-5.023,3.468-5.023,3.468l3.641,9.335
				c0,0,6.027-0.769,8.404-0.601c2.377,0.168,2.377,0.168,2.377,0.168s-0.025-9.797,2.808-12.703
				c2.833-2.906,3.314,3.818,3.91,5.532c0.596,1.715-1.2,6.844-1.2,6.844s6.958-3.809,9.215-5.322
				c2.257-1.513,2.257-1.513,2.257-1.513s-2.604-7.112-4.371-9.148c-1.768-2.036-4.178-1.729-2.142-3.496
				c2.036-1.768,5.076-0.836,6.81,1.675c1.734,2.512,3.776,7.434,3.776,7.434s2.598,0.422,5.974-3.401
				C67.628,392.2,66.523,390.928,62.854,388.758z M30.959,399.545c-2.696-1.348,3.707-4.044,3.707-4.044
				C37.025,395.164,33.655,400.893,30.959,399.545z M35.499,386.963c-1.149-0.575,2.299-1.724,2.299-1.724
				C42.778,386.197,36.648,387.537,35.499,386.963z"/>
			<path style="fill:none;stroke:#263238;stroke-linecap:round;stroke-miterlimit:10;" d="M30.887,406.411
				c-0.701,0.741-1.421,1.462-2.161,2.156"/>
			<path style="fill:none;stroke:#263238;stroke-linecap:round;stroke-miterlimit:10;" d="M44.719,385.437
				c-2.579,5.373-6.48,12.385-11.611,18.481"/>
			<path style="fill:none;stroke:#263238;stroke-linecap:round;stroke-miterlimit:10;" d="M45.966,382.747
				c1.617-3.615,2.446-5.998,2.446-5.998s3.006,1.407,5.926,0.657c2.92-0.75,5.264-0.106,5.264-0.106"/>
			<path style="fill:none;stroke:#263238;stroke-linecap:round;stroke-miterlimit:10;" d="M32.025,375.353
				c0,0,11.772,5.848,11.008,6.511"/>
			<path style="fill:none;stroke:#263238;stroke-linecap:round;stroke-miterlimit:10;" d="M49.234,385.407
				c0,0,5.571,2.304,8.664,5.867"/>
			<path style="fill:none;stroke:#263238;stroke-linecap:round;stroke-miterlimit:10;" d="M41.8,389.183c0,0-3.77-0.744-9.034-0.638
				c-5.264,0.106-8.947,1.519-8.947,1.519"/>
			<path style="fill:none;stroke:#263238;stroke-linecap:round;stroke-miterlimit:10;" d="M43.213,392.866
				c0,0,6.167,4.019,6.052,9.028"/>
		</g>
		<g>
			<path style="fill:#92E3A9;" d="M47.892,319.601c0,0-4.607,3.351-7.539,0c-2.932-3.35,1.256-10.051-2.932-12.564
				c-4.188-2.513-10.889,2.094-10.889,2.094s5.444,1.256,5.444,4.188c0,2.932-2.513,4.188-2.931,2.932
				c-0.419-1.256-3.351-7.538-7.538-4.607c-4.188,2.932-4.607,7.12-4.607,7.12s10.051-1.675,10.889,2.094
				c0.838,3.769-4.188-0.419-8.376-0.419c-4.188,0-7.957,0.837-7.539,3.35c0.419,2.513,0,6.701,0,6.701s3.35-3.35,7.957-3.35
				c4.607,0,4.607,2.931,0.419,2.931c-4.188,0-7.538,4.188-7.538,4.188s4.188,6.282,9.214,9.214
				c5.025,2.931,6.701,1.675,7.119-0.838c0.419-2.513-1.257-8.795,1.675-8.795c2.932,0-4.188,11.307-0.419,11.726
				c3.769,0.419,6.701-0.837,7.538-3.35c0.838-2.513,0.838-2.513,0.838-2.513s-1.675-6.282-1.256-8.795
				c0.419-2.513,1.256,0,2.094,2.932c0.837,2.931,1.675,10.051,2.931,9.632s5.026-5.863,5.863-7.957
				c0.837-2.094-5.863-7.957-5.863-9.214c0-1.256,5.026,0.838,5.863,2.094c0.837,1.256,1.675,2.932,1.675,2.932
				s2.932-2.094,2.513-7.957C52.08,317.507,47.892,319.601,47.892,319.601z"/>
			<path style="fill:none;stroke:#263238;stroke-linecap:round;stroke-miterlimit:10;" d="M24.431,334.791
				c2.895-4.044,7.188-9.538,10.897-12.259"/>
			<path style="fill:none;stroke:#263238;stroke-linecap:round;stroke-miterlimit:10;" d="M21.089,339.703
				c0,0,0.736-1.162,1.937-2.909"/>
			<path style="fill:none;stroke:#263238;stroke-linecap:round;stroke-miterlimit:10;" d="M37.422,323.37
				c0,0,5.026,6.282,6.282,12.983"/>
			<path style="fill:none;stroke:#263238;stroke-linecap:round;stroke-miterlimit:10;" d="M32.396,327.558
				c0,0,1.257-0.837,1.257,7.538"/>
			<path style="fill:none;stroke:#263238;stroke-linecap:round;stroke-miterlimit:10;" d="M35.328,319.601
				c0,0,2.513-2.513,0.837-7.119"/>
			
				<line style="fill:none;stroke:#263238;stroke-linecap:round;stroke-miterlimit:10;" x1="31.978" y1="323.789" x2="29.884" y2="320.438"/>
			<path style="fill:none;stroke:#263238;stroke-linecap:round;stroke-miterlimit:10;" d="M28.208,327.558
				c0,0-6.282-4.188-10.051-4.188"/>
		</g>
		
			<rect x="57.812" y="413.429" style="fill:#263238;stroke:#263238;stroke-width:2;stroke-linecap:round;stroke-miterlimit:10;" width="32.376" height="46.603"/>
	</g>
</g>
<g id="Icons">
	<g style="opacity:0.3;">
		<circle style="fill:none;stroke:#000000;stroke-miterlimit:10;" cx="412.301" cy="92.44" r="46.116"/>
		
			<polyline style="fill:none;stroke:#000000;stroke-width:8;stroke-linecap:round;stroke-linejoin:round;stroke-miterlimit:10;" points="
			390.457,68.728 413.608,93 390.83,116.898 		"/>
		
			<polyline style="fill:none;stroke:#000000;stroke-width:8;stroke-linecap:round;stroke-linejoin:round;stroke-miterlimit:10;" points="
			415.849,68.728 439,93 416.222,116.898 		"/>
	</g>
	<g style="opacity:0.3;">
		<rect x="186.255" y="361.277" style="fill:none;stroke:#000000;stroke-miterlimit:10;" width="54.075" height="54.075"/>
		<polygon points="224.891,388.691 220.429,384.229 220.393,384.266 208.001,371.874 203.539,376.336 215.931,388.727 
			203.539,401.119 208.001,405.581 220.393,393.189 220.429,393.225 224.891,388.764 224.854,388.727 		"/>
	</g>
	<g style="opacity:0.3;">
		<polygon points="342.381,390.13 321.9,378.305 321.9,401.955 		"/>
		<polygon points="326.058,390.13 305.577,378.305 305.577,401.955 		"/>
		<rect x="294.356" y="360.636" style="fill:none;stroke:#000000;stroke-miterlimit:10;" width="54.075" height="54.075"/>
	</g>
</g>
<g id="Screen">
	<g>
		<path style="opacity:0.2;" d="M345.137,343.137h-270v-282c0-2.761,2.239-5,5-5h260c2.761,0,5,2.239,5,5V343.137z"/>
		<path style="fill:#FFFFFF;stroke:#263238;stroke-linecap:round;stroke-linejoin:round;stroke-miterlimit:10;" d="M341.137,337.137
			h-270v-282c0-2.761,2.239-5,5-5h260c2.761,0,5,2.239,5,5V337.137z"/>
		<g>
			<g>
				<rect x="167.432" y="124.069" style="fill:#EDEDED;" width="75.751" height="30.138"/>
				<g>
					<path style="fill:#263238;" d="M203.024,135.692c-0.655,0-1.066,0.355-1.066,1.291v1.402h-1.946v-1.271
						c0-2.096,1.048-3.293,3.068-3.293c2.021,0,3.068,1.197,3.068,3.293c0,4.115-4.097,5.649-4.097,7.801
						c0,0.094,0,0.188,0.018,0.28h3.891v1.871h-5.949v-1.608c0-3.854,4.079-4.49,4.079-8.27
						C204.09,136.01,203.678,135.692,203.024,135.692z"/>
				</g>
			</g>
			<g>
				<rect x="248.071" y="124.069" style="fill:#EDEDED;" width="75.751" height="30.138"/>
				<g>
					<path style="fill:#263238;" d="M285.024,137.188c0-1.178-0.411-1.496-1.066-1.496c-0.654,0-1.066,0.355-1.066,1.291v0.842
						h-1.945v-0.711c0-2.096,1.048-3.293,3.068-3.293c2.021,0,3.067,1.197,3.067,3.293v0.337c0,1.402-0.448,2.282-1.44,2.693
						c1.029,0.449,1.44,1.422,1.44,2.75v1.029c0,2.095-1.047,3.292-3.067,3.292c-2.021,0-3.068-1.197-3.068-3.292v-1.085h1.945
						v1.216c0,0.936,0.412,1.291,1.066,1.291c0.655,0,1.066-0.318,1.066-1.479v-1.028c0-1.216-0.411-1.665-1.347-1.665h-0.692
						v-1.871h0.805c0.767,0,1.234-0.337,1.234-1.384V137.188z"/>
				</g>
			</g>
			<polygon style="fill:#FFFFFF;stroke:#263238;stroke-linecap:round;stroke-linejoin:round;stroke-miterlimit:10;" points="
				162.545,154.206 162.545,124.069 86.794,124.069 86.794,154.206 86.794,316.298 323.822,316.298 323.822,154.206 			"/>
			<g>
				<path style="fill:#263238;" d="M121.46,135.616c1.59,0,1.945-0.767,2.264-1.645h1.384v13.095h-2.058v-9.989h-1.59V135.616z"/>
			</g>
			
				<line style="fill:none;stroke:#263238;stroke-linecap:round;stroke-linejoin:round;stroke-miterlimit:10;" x1="103.899" y1="182.715" x2="194.312" y2="182.715"/>
			
				<line style="fill:none;stroke:#263238;stroke-linecap:round;stroke-linejoin:round;stroke-miterlimit:10;" x1="103.899" y1="223.442" x2="194.312" y2="223.442"/>
			
				<rect x="103.899" y="190.046" style="fill:none;stroke:#263238;stroke-linecap:round;stroke-linejoin:round;stroke-miterlimit:10;" width="158.019" height="23.621"/>
		</g>
		<g>
			<path style="fill:#263238;stroke:#263238;stroke-linecap:round;stroke-linejoin:round;stroke-miterlimit:10;" d="
				M304.681,301.637h-70.05c-2.474,0-4.48-2.006-4.48-4.48v-27.694c0-2.474,2.006-4.48,4.48-4.48h70.05
				c2.474,0,4.48,2.006,4.48,4.48v27.694C309.16,299.631,307.155,301.637,304.681,301.637z"/>
			<g>
				<path style="fill:#92E3A9;" d="M253.785,291.498h-1.668v-16.674h2.358l3.859,12.054v-12.054h1.644v16.674h-1.929l-4.264-13.483
					V291.498z"/>
				<path style="fill:#92E3A9;" d="M267.814,282.208v1.667h-4.073v5.931h5.002v1.691h-6.86v-16.674h6.86v1.691h-5.002v5.693H267.814
					z"/>
				<path style="fill:#92E3A9;" d="M274.603,284.304l-2.788,7.194h-1.763l3.359-8.599l-3.145-8.076h1.929l2.574,6.669l2.596-6.669
					h1.738l-3.12,8.076l3.335,8.599h-1.953L274.603,284.304z"/>
				<path style="fill:#92E3A9;" d="M283.249,291.498v-14.983h-3.073v-1.691h8.004v1.691h-3.073v14.983H283.249z"/>
			</g>
		</g>
		<path style="fill:#263238;stroke:#263238;stroke-linecap:round;stroke-linejoin:round;stroke-miterlimit:10;" d="M341.137,68.137
			h-270v-13c0-2.761,2.239-5,5-5h260c2.761,0,5,2.239,5,5V68.137z"/>
		<g>
			<path style="fill:#FFFFFF;stroke:#263238;stroke-linecap:round;stroke-linejoin:round;stroke-miterlimit:10;" d="M332.47,57.47
				c0-1.841-1.492-3.333-3.333-3.333c-1.841,0-3.333,1.492-3.333,3.333c0,1.841,1.492,3.333,3.333,3.333
				C330.978,60.804,332.47,59.311,332.47,57.47z"/>
			<path style="fill:#FFFFFF;stroke:#263238;stroke-linecap:round;stroke-linejoin:round;stroke-miterlimit:10;" d="M318.47,57.47
				c0-1.841-1.492-3.333-3.333-3.333c-1.841,0-3.333,1.492-3.333,3.333c0,1.841,1.492,3.333,3.333,3.333
				C316.978,60.804,318.47,59.311,318.47,57.47z"/>
			<path style="fill:#FFFFFF;stroke:#263238;stroke-linecap:round;stroke-linejoin:round;stroke-miterlimit:10;" d="M304.47,57.47
				c0-1.841-1.492-3.333-3.333-3.333c-1.841,0-3.333,1.492-3.333,3.333c0,1.841,1.492,3.333,3.333,3.333
				C302.978,60.804,304.47,59.311,304.47,57.47z"/>
		</g>
		
			<line style="fill:none;stroke:#263238;stroke-linecap:round;stroke-linejoin:round;stroke-miterlimit:10;" x1="85.979" y1="102.076" x2="324.637" y2="102.076"/>
		
			<line style="fill:none;stroke:#263238;stroke-linecap:round;stroke-linejoin:round;stroke-miterlimit:10;" x1="90.866" y1="87.415" x2="164.174" y2="87.415"/>
	</g>
</g>
<g id="Character_1_">
	<g>
		<g>
			<path style="fill:#263238;stroke:#263238;stroke-linecap:round;stroke-linejoin:round;stroke-miterlimit:10;" d="
				M416.752,184.045c0,0,14.033,21.515,16.139,32.398c2.107,10.884-3.16,15.799-1.053,23.874c2.107,8.075,8.075,8.777,11.937,17.554
				c3.862,8.777-7.724,27.736-13.341,29.491c-5.617,1.756-23.172,0.702-23.172-11.937s4.161-33.752,7.022-39.322
				c2.861-5.57,5.266-23.172,5.266-26.331"/>
			<path style="fill:#263238;stroke:#263238;stroke-linecap:round;stroke-linejoin:round;stroke-miterlimit:10;" d="
				M402.688,209.352c0,0-1.681,12.776,0.168,15.298c1.849,2.522,8.91,3.362,14.289,5.884c5.379,2.522,4.875,6.052,4.875,10.759
				c0,4.707-9.414,31.605-8.91,36.48c0.504,4.875,13.112,18.66,15.298,32.445c2.185,13.785-10.591,53.627-12.272,60.015
				c-1.681,6.388-3.194,10.423-1.345,16.475c1.849,6.052,5.043,10.591,5.38,21.182c0.336,10.591-7.733,38.833-8.237,41.523
				c-0.504,2.69,3.194,11.095,4.203,15.466c1.009,4.371-2.858,6.22-6.052,6.052s-8.742-1.345-8.742-3.53s1.849-11.936,1.849-15.634
				c0-3.698-0.504-9.582-0.504-12.104s-2.69-26.729-3.362-31.773c-0.672-5.043-2.522-13.113-2.522-13.113s0.504,25.721,1.177,32.781
				c0.313,3.289-0.382,11.013,0.073,17.78c0.522,7.759,2.147,14.495,1.608,15.842c-1.009,2.522-5.211,2.017-9.75,2.858
				c-4.539,0.841-3.194,2.522-8.742,3.53c-5.548,1.009-9.366-0.216-8.525-2.906c0.84-2.69,7.468-5.178,10.494-9.381
				c3.026-4.203,2.738-7.046,2.906-8.223c0.168-1.177,0-4.035-0.336-6.388c-0.336-2.354-5.043-12.608-6.724-19.837
				c-1.681-7.229-1.177-8.91-1.681-20.005c-0.504-11.095,2.354-16.811,0.504-23.872c-1.849-7.061-8.237-30.092-10.086-43.204
				c-1.849-13.113-2.73-25.151-1.544-30.953c2.25-11,7.932-18.303,8.94-22.506c1.009-4.203-3.698-11.6-5.884-22.191
				c-2.186-10.591,1.849-19.669,4.035-24.712c2.185-5.043,9.246-7.229,10.423-7.733c1.177-0.504,2.185-6.052,2.353-9.582
				s0.168-5.38,0.168-5.38L402.688,209.352z"/>
			<g>
				<path style="fill:#FFFFFF;stroke:#263238;stroke-linecap:round;stroke-linejoin:round;stroke-miterlimit:10;" d="
					M416.136,464.879c-1.009-4.371-4.707-12.776-4.203-15.466c0.215-1.147,1.805-6.942,3.533-14.028
					c-3.397,0.98-8.037,1.439-13.159-0.516c0.233,2.429,0.38,4.206,0.38,4.794c0,2.522,0.504,8.405,0.504,12.104
					c0,3.698-1.849,13.449-1.849,15.634s5.548,3.362,8.742,3.53S417.145,469.25,416.136,464.879z M372.644,464.663
					c0.84-2.69,7.468-5.178,10.494-9.381s2.738-7.046,2.906-8.223c0.168-1.177,0-4.035-0.336-6.388
					c-0.123-0.863-0.837-2.794-1.77-5.242c6.381,2.575,11.236,0.868,13.747-0.402c-0.911,12.622,2.755,24.206,1.976,26.154
					c-1.009,2.522-5.211,2.017-9.75,2.858c-4.539,0.841-3.194,2.522-8.742,3.53C375.622,468.577,371.803,467.352,372.644,464.663z"
					/>
				<g>
					<path style="fill:#FFFFFF;stroke:#263238;stroke-linecap:round;stroke-linejoin:round;stroke-miterlimit:10;" d="
						M372.644,464.663c0.84-2.69,7.468-5.178,10.494-9.381s2.738-7.046,2.906-8.223c0,0,3.632,1.241,4.132,2.991s1.25,3.5,1.25,3.5
						s3.75,0.75,7-0.75c0.517-0.239-0.034-1.001,0.363-1.201c0.206,4.566,1.228,8.69,0.871,9.582
						c-1.009,2.522-5.211,2.017-9.75,2.858c-4.539,0.841-3.194,2.522-8.742,3.53C375.622,468.577,371.803,467.352,372.644,464.663z"
						/>
					<path style="fill:#92E3A9;stroke:#263238;stroke-linecap:round;stroke-linejoin:round;stroke-miterlimit:10;" d="
						M372.643,464.672c8.037,1.346,11.737-0.71,16.125-2.516c3.754-1.546,8.834-2.26,11.122-2.52
						c-0.044,0.737-0.117,1.269-0.227,1.544c-1.009,2.522-5.211,2.017-9.75,2.858c-4.539,0.841-3.194,2.522-8.742,3.53
						C375.629,468.576,371.825,467.351,372.643,464.672z"/>
				</g>
				<g>
					<path style="fill:#FFFFFF;stroke:#263238;stroke-linecap:round;stroke-linejoin:round;stroke-miterlimit:10;" d="
						M403.188,451.231c1-0.648,2.554-1.181,4.989-1.181c1.659,0,2.868,0.286,3.763,0.7c0.417,3.494,3.32,10.332,4.196,14.129
						c1.009,4.371-2.858,6.22-6.052,6.052s-8.742-1.345-8.742-3.53s1.849-11.936,1.849-15.634
						C403.192,451.594,403.19,451.413,403.188,451.231z"/>
					<path style="fill:#92E3A9;stroke:#263238;stroke-linecap:round;stroke-linejoin:round;stroke-miterlimit:10;" d="
						M401.343,467.4c0-0.535,0.112-1.528,0.279-2.77c0.951,1.704,2.953,3.81,7.105,3.983c7.044,0.294,7.044-4.99,7.044-4.99
						l0.033-0.005c0.127,0.445,0.242,0.871,0.332,1.26c1.009,4.371-2.858,6.22-6.052,6.052S401.343,469.586,401.343,467.4z"/>
				</g>
			</g>
		</g>
		<g>
			<path style="fill:#FFFFFF;stroke:#263238;stroke-linecap:round;stroke-linejoin:round;stroke-miterlimit:10;" d="
				M320.278,278.449c0,0-6.184,2.665-6.93,4.797c-0.746,2.132-0.427,4.158-1.599,4.904c-1.173,0.746-3.092,2.879-3.518,5.011
				s-1.386,3.945-1.919,3.092c-0.533-0.853-1.706-2.665-1.066-4.371c0.64-1.706,1.599-2.985,1.492-4.051s-1.279-1.386-2.878-0.853
				c-1.599,0.533-7.25,2.772-9.169,3.198c-1.919,0.426-5.437,0.96-5.864,0.213c-0.427-0.746,0.107-1.706,0.746-1.812
				c0.64-0.107,4.904-1.173,6.077-1.706c1.173-0.533,2.985-1.386,2.985-1.706c0-0.32-0.64-0.533-1.066-0.426
				c-0.426,0.107-3.838,0.96-5.117,1.386c-1.279,0.427-5.864,1.279-6.077-0.533s1.493-1.279,3.412-1.706
				c1.919-0.426,6.29-1.706,6.93-1.812c0.64-0.107,1.279-0.426,1.279-0.426s-9.169,0.96-9.595,0.96
				c-0.426,0-1.493,0.107-1.706-0.426c-0.213-0.533-0.426-1.066,0.107-1.493c0.533-0.426,2.239-0.426,2.239-0.426
				s1.173-0.107,1.706-0.213c0.533-0.107,2.559-0.533,2.985-0.746s1.386-0.427,1.812-0.533s0.96-0.426,1.279-0.533
				c0.32-0.107,1.599-0.96,1.599-0.96s0-0.427-1.493-0.746c-1.493-0.32-3.092-0.64-4.051-0.64s-2.878-0.107-3.092-1.066
				c-0.213-0.96,1.279-1.066,2.879-0.96c1.599,0.107,5.97,0.746,6.823,0.746c0.853,0,5.224-1.599,6.717-1.812
				c1.492-0.213,3.092-0.107,5.864-1.066c2.772-0.959,8.636-3.945,8.636-3.945"/>
			<path style="fill:#92E3A9;stroke:#263238;stroke-linecap:round;stroke-linejoin:round;stroke-miterlimit:10;" d="
				M380.494,227.773c0,0-3.706,0.412-10.295,4.118s-11.531,10.707-11.531,10.707l-18.205,13.565c0,0-7.045,3.569-11.163,6.039
				c-4.118,2.471-16.472,7.413-17.708,9.06c-1.236,1.647-0.824,7.824,2.883,9.06c3.706,1.235,19.399-3.157,26.4-6.039
				c7.001-2.883,5.851-3.269,8.322-4.505c2.471-1.236,23.061-14.413,23.061-14.413L380.494,227.773z"/>
		</g>
		<path style="fill:#92E3A9;stroke:#263238;stroke-linecap:round;stroke-linejoin:round;stroke-miterlimit:10;" d="M375.117,280.294
			c1.009-4.203-4.007-8.423-6.192-19.014c-2.185-10.591-2.185-13.218,0-18.261s8.556-14.43,14.766-17.36
			c1.158-0.546,2.185-6.052,2.353-9.582s0.168-5.38,0.168-5.38l16.475-1.345c0,0-1.681,12.776,0.168,15.298
			c1.849,2.522,8.91,3.362,14.289,5.884c5.379,2.522,4.875,6.052,4.875,10.759c0,4.707-9.414,31.605-8.91,36.48
			c0.504,4.875,13.112,18.66,15.298,32.445c0.06,0.376,0.103,0.779,0.141,1.193c-6.565,2.279-18.778,5.65-34.622,6.14
			c-14.641,0.453-23.534-3.923-28.288-7.463c-0.006-2.95,0.16-5.438,0.538-7.287C368.427,291.8,374.109,284.497,375.117,280.294z"/>
		<g>
			<path style="fill:none;stroke:#263238;stroke-linecap:round;stroke-linejoin:round;stroke-miterlimit:10;" d="M378.1,276.706
				c0,0,12.785,15.042,22.186,19.178"/>
			<path style="fill:none;stroke:#263238;stroke-linecap:round;stroke-linejoin:round;stroke-miterlimit:10;" d="M390.885,284.979
				c0,0,9.401,9.025,14.666,12.033"/>
		</g>
		<path style="fill:#FFFFFF;stroke:#263238;stroke-linecap:round;stroke-linejoin:round;stroke-miterlimit:10;" d="M383.691,225.659
			c1.177-0.504,2.185-6.052,2.353-9.582s0.168-5.38,0.168-5.38l16.475-1.345c0,0-1.681,12.776,0.168,15.298
			c1.127,1.537,4.193,2.45,7.631,3.499c-0.794,1.037-8.463,8.488-20.887,6.314c-5.835-1.021-8.751-3.393-10.363-6.845
			C381.276,226.513,383.137,225.896,383.691,225.659z"/>
		<g>
			<g>
				<path style="fill:#263238;stroke:#263238;stroke-linecap:round;stroke-linejoin:round;stroke-miterlimit:10;" d="
					M377.069,217.145c0,0,2.458,4.915-1.755,10.182c-4.213,5.266-9.265,11.724-6.388,15.692c2.877,3.969,11.303-2,11.303-2
					s-2.809-1.404-0.351-8.075c2.458-6.671,5.266-3.862,5.266-12.99L377.069,217.145z"/>
				<polygon style="fill:#263238;stroke:#263238;stroke-linecap:round;stroke-linejoin:round;stroke-miterlimit:10;" points="
					385.144,219.954 397.415,218.936 398.973,208.034 				"/>
				<path style="fill:#FFFFFF;stroke:#263238;stroke-linecap:round;stroke-linejoin:round;stroke-miterlimit:10;" d="
					M369.761,180.193c0,0-3.818,4.587-2.942,14.676c0.219,2.522,3.06,6.114,2.536,8.473c-1.271,5.721,4.582,11.375,5.959,13.1
					c1.835,2.3,3.032,4.271,5.678,4.104c2.646-0.166,7.864-1.702,10.419-3.311c2.556-1.61,7.186-4.799,7.186-4.799
					S410.24,180.333,369.761,180.193z"/>
				<path style="fill:none;stroke:#263238;stroke-linecap:round;stroke-linejoin:round;stroke-miterlimit:10;" d="M371.959,194.628
					c0,0,2.136,2.655,2.137,5.281c0.001,2.625-3.298,4.966-2.429,5.732c0.869,0.766,5.027,1.653,5.027,1.653"/>
				<path style="fill:none;stroke:#263238;stroke-linecap:round;stroke-linejoin:round;stroke-miterlimit:10;" d="M375.772,210.291
					c0,0,3.788,0.95,8.659-2.474"/>
				<path style="fill:#263238;" d="M380.496,198.652c0.054,0.857,0.5,1.527,0.996,1.496c0.496-0.031,0.855-0.752,0.801-1.609
					c-0.054-0.857-0.5-1.527-0.996-1.496C380.801,197.074,380.442,197.795,380.496,198.652z"/>
				<path style="fill:#263238;" d="M370.523,199.641c0.246,0.823,0.832,1.375,1.308,1.233c0.477-0.142,0.664-0.925,0.418-1.748
					c-0.246-0.823-0.831-1.376-1.308-1.233C370.465,198.034,370.278,198.817,370.523,199.641z"/>
				<path style="fill:none;stroke:#263238;stroke-linecap:round;stroke-linejoin:round;stroke-miterlimit:10;" d="M383.307,193.423
					c0,0-3.486-2.024-6.185-1.237"/>
				<path style="fill:none;stroke:#263238;stroke-linecap:round;stroke-linejoin:round;stroke-miterlimit:10;" d="M371.714,193.331
					c0,0-2.993-0.632-3.646,2.034"/>
			</g>
		</g>
		<path style="fill:#263238;stroke:#263238;stroke-linecap:round;stroke-linejoin:round;stroke-miterlimit:10;" d="M431.136,217.145
			c-3.862-14.746-9.83-13.692-11.235-22.821c-1.404-9.128-10.884-30.193-24.927-31.949c-14.043-1.756-30.896,8.426-34.055,14.746
			c-3.16,6.32,6.32,9.128,6.32,9.128l2.107-4.213c0,0,7.724-1.053,12.639,4.915c3.028,3.676,6.638,11.652,15.131,13.454
			c4.244,0.9-1.006,10.021-0.736,13.931c0.297,4.308-0.6,7.859-1.495,11.191l-0.26,0.044c0,0-3.16,9.83-2.107,14.395
			c1.053,4.564,3.511,9.128,1.404,13.341c-2.107,4.213-5.617,4.564-5.617,4.564s5.266,3.862,12.288,2.458
			c7.022-1.404,9.83-10.182,9.83-17.203c0-6.368,4.619-12.138,8.883-12.376c0.666,0.372,1.323,0.868,1.953,1.554
			C425.12,236.517,434.998,231.891,431.136,217.145z"/>
		<g>
			<path style="fill:#FFFFFF;stroke:#263238;stroke-linecap:round;stroke-linejoin:round;stroke-miterlimit:10;" d="
				M430.723,329.108c0,0-0.458,1.365-1.353,2.96c-1.945,3.468-1.776,3.637-2.115,5.582c-0.338,1.945-1.015,4.229-1.861,5.413
				c-0.846,1.184-0.338,1.945,0.423,1.861c0.761-0.085,1.945-1.099,2.537-2.368c0.592-1.269,1.438-2.453,1.438-2.453
				s-0.169,5.075,0.254,7.528c0.423,2.453,0.93,7.02,2.284,7.443c1.353,0.423,1.1-1.269,1.1-1.269s0.169,1.438,1.438,1.692
				c1.269,0.254,1.607-1.015,1.607-1.015s0.846,0.93,1.861,0.592c1.015-0.338,0.677-3.721,0.677-3.721s1.015,2.115,1.945,2.115
				c0.93,0-0.592-2.622-0.761-4.483c-0.169-1.861,0.254-7.105-0.338-9.05c-0.592-1.945-0.592-10.065-0.592-10.065L430.723,329.108z"
				/>
			<path style="fill:none;stroke:#263238;stroke-linecap:round;stroke-linejoin:round;stroke-miterlimit:10;" d="M433.43,353.806
				c0,0-0.592-4.567-0.338-9.473"/>
			<path style="fill:none;stroke:#263238;stroke-linecap:round;stroke-linejoin:round;stroke-miterlimit:10;" d="M436.475,354.483
				c0,0,0-6.174,0.254-10.234"/>
			<path style="fill:none;stroke:#263238;stroke-linecap:round;stroke-linejoin:round;stroke-miterlimit:10;" d="M439.012,351.353
				c0,0-0.592-4.229-0.254-7.189"/>
		</g>
		<path style="fill:#92E3A9;stroke:#263238;stroke-linecap:round;stroke-linejoin:round;stroke-miterlimit:10;" d="M411.758,232.304
			c0,0,3-3.5,9.5,0s22.5,60.5,22.5,62.5c0,5.428-0.96,10.998-1.483,16.392c-0.671,6.91-1.514,13.822-2.048,20.744
			c-0.237,3.069-2.871,4.175-5.637,3.932c-1.341-0.118-2.678-0.483-3.906-1.033c-1.775-0.796-2.466-2.198-2.925-4.035
			c-1-4,0-35.5,0-35.5l-16.5-34"/>
	</g>
</g>
</svg>
